<?xml version="1.0" standalone="no"?>
<!DOCTYPE svg PUBLIC "-//W3C//DTD SVG 20010904//EN"
 "http://www.w3.org/TR/2001/REC-SVG-20010904/DTD/svg10.dtd">
<svg version="1.0" xmlns="http://www.w3.org/2000/svg"
 width="437.000000pt" height="243.000000pt" viewBox="0 0 437.000000 243.000000"
 preserveAspectRatio="xMidYMid meet">

<g transform="translate(0.000000,243.000000) scale(0.100000,-0.100000)"
fill="#000000" stroke="none">
<path d="M815 2239 c-27 -4 -67 -11 -88 -15 -20 -3 -40 -10 -43 -15 -3 -5 -14
-9 -25 -9 -10 0 -19 -3 -19 -8 0 -4 -15 -14 -32 -22 -32 -13 -42 -20 -73 -47
-7 -7 -17 -13 -20 -13 -10 0 -57 -51 -85 -94 -14 -20 -28 -36 -32 -36 -5 0 -8
-7 -8 -15 0 -8 -3 -15 -8 -15 -7 0 -18 -27 -44 -110 -17 -52 -22 -257 -8 -305
31 -104 46 -141 62 -156 10 -9 18 -20 18 -23 0 -4 6 -13 13 -20 6 -8 19 -23
27 -35 8 -11 18 -21 22 -21 4 0 188 180 408 401 l401 401 -28 24 c-36 32 -101
74 -113 74 -6 0 -10 5 -10 10 0 6 -9 10 -20 10 -11 0 -28 4 -38 9 -55 29 -179
43 -257 30z"/>
<path d="M3398 1860 c-308 -309 -316 -318 -298 -336 10 -11 89 -90 177 -176
87 -86 163 -163 170 -170 6 -7 51 -52 100 -100 48 -48 93 -93 99 -100 7 -7 28
-27 48 -45 l36 -32 0 639 c0 352 -3 640 -7 639 -5 -1 -151 -144 -325 -319z"/>
<path d="M2380 1515 l0 -635 640 0 c420 0 640 3 640 10 0 6 -4 10 -10 10 -5 0
-20 11 -34 25 -14 14 -28 25 -32 25 -7 0 -22 16 -68 74 -15 20 -33 36 -40 36
-6 0 -20 12 -31 27 -34 44 -72 83 -84 83 -6 0 -11 4 -11 9 0 5 -35 45 -77 89
-43 44 -82 85 -88 91 -5 6 -27 25 -47 42 -21 17 -38 37 -38 45 0 8 -5 14 -11
14 -6 0 -67 56 -135 125 -68 69 -128 125 -134 125 -5 0 -10 4 -10 9 0 5 -40
50 -90 102 -49 51 -90 96 -90 101 0 4 -9 8 -20 8 -11 0 -20 4 -20 10 0 11
-193 210 -203 210 -4 0 -7 -286 -7 -635z"/>
<path d="M1260 1405 l0 -525 530 0 530 0 0 525 0 525 -530 0 -530 0 0 -525z"/>
<path d="M952 1660 c-50 -50 -92 -96 -92 -101 0 -5 -4 -9 -8 -9 -5 0 -144
-136 -310 -302 l-302 -302 35 -33 c19 -18 39 -33 44 -33 5 0 14 -7 21 -15 7
-8 21 -15 31 -15 11 0 19 -4 19 -10 0 -5 11 -10 25 -10 14 0 25 -4 25 -10 0
-5 13 -10 29 -10 16 0 31 -5 33 -11 5 -15 261 -15 266 0 2 6 19 11 37 11 18 0
35 4 37 8 2 4 29 20 60 34 31 15 67 35 79 45 49 40 96 90 114 121 11 17 23 32
27 32 4 0 8 7 8 15 0 8 5 15 12 15 6 0 9 3 5 6 -3 4 3 24 13 45 11 21 20 49
20 63 0 14 5 28 10 31 6 4 10 58 10 130 0 72 -4 126 -10 130 -5 3 -10 17 -10
30 0 26 -30 98 -42 103 -5 2 -8 10 -8 18 0 13 -6 22 -60 85 l-25 30 -93 -91z"/>
<path d="M1263 763 c6 -55 47 -186 59 -191 4 -2 8 -10 8 -18 0 -8 4 -14 8 -14
4 0 15 -12 24 -27 19 -32 83 -103 92 -103 6 0 14 -6 49 -35 30 -27 118 -58
199 -72 81 -14 97 -14 183 2 52 9 97 21 101 26 3 5 12 9 20 9 9 0 22 6 29 13
8 6 38 27 68 46 30 19 65 50 78 70 13 19 34 45 47 57 12 13 22 32 22 44 0 11
3 20 8 20 12 0 32 65 59 193 l5 27 -532 0 -533 0 6 -47z"/>
<path d="M3637 615 c39 -49 86 -49 133 0 l34 35 -34 0 c-18 0 -42 -7 -52 -17
-17 -15 -19 -15 -36 0 -10 10 -31 17 -46 17 l-27 0 28 -35z"/>
<path d="M2480 366 l0 -176 40 0 39 0 3 107 3 108 41 -105 c39 -98 43 -105 69
-105 26 0 30 7 69 105 l41 105 3 -108 3 -107 39 0 40 0 0 176 0 175 -51 -3
-52 -3 -41 -101 c-22 -55 -45 -102 -49 -105 -5 -2 -28 43 -52 101 l-43 105
-51 3 -51 3 0 -175z"/>
<path d="M2930 365 l0 -175 40 0 40 0 0 60 c0 59 0 60 28 60 25 0 32 -8 57
-60 29 -60 29 -60 73 -60 24 0 42 4 40 8 -1 5 -16 34 -33 65 l-29 56 27 25
c23 21 27 33 27 76 0 95 -37 120 -181 120 l-89 0 0 -175z m168 99 c48 -33 9
-100 -55 -92 -25 3 -28 8 -31 42 -2 21 -1 44 2 52 7 19 56 18 84 -2z"/>
<path d="M3260 365 l0 -175 120 0 120 0 0 30 0 30 -80 0 -80 0 0 40 0 40 75 0
75 0 0 35 0 35 -75 0 -75 0 0 40 0 40 80 0 80 0 0 30 0 30 -120 0 -120 0 0
-175z"/>
<path d="M3560 510 l0 -30 85 0 c47 0 85 -3 85 -6 0 -4 -38 -60 -85 -125 -47
-64 -85 -127 -85 -138 0 -20 5 -21 140 -21 l140 0 0 30 0 30 -85 0 c-47 0 -85
3 -85 6 0 3 38 58 85 122 48 66 85 126 85 139 0 23 -1 23 -140 23 l-140 0 0
-30z"/>
<path d="M3946 372 c-31 -92 -56 -171 -56 -175 0 -5 19 -7 42 -5 38 3 43 6 52
36 l9 32 67 0 68 0 6 -35 c7 -34 8 -35 53 -35 32 0 44 4 40 12 -2 7 -28 86
-58 176 l-54 162 -56 0 -57 0 -56 -168z m133 31 c7 -27 15 -56 18 -65 5 -15
-1 -18 -36 -18 -24 0 -41 5 -41 12 0 19 33 118 40 118 3 0 12 -21 19 -47z"/>
</g>
</svg>
